<svg width="56" height="56" viewBox="0 0 56 56" fill="none" xmlns="http://www.w3.org/2000/svg">
<rect width="56" height="56" rx="12" fill="#2C63F1"/>
<circle cx="28" cy="28" r="17.5" stroke="white"/>
<path d="M29.9506 19.1315C28.4099 18.9562 26.8543 18.9562 25.3136 19.1315L23.7186 19.3135C23.6042 19.3267 23.4978 19.3789 23.4174 19.4615C23.3371 19.544 23.2877 19.6518 23.2776 19.7665L23.1546 21.1485C22.9485 23.4716 22.9485 25.8084 23.1546 28.1315L23.2776 29.5135C23.2886 29.638 23.3458 29.7539 23.438 29.8383C23.5302 29.9227 23.6506 29.9695 23.7756 29.9695H25.8466V37.3715C25.8468 37.475 25.8791 37.5759 25.939 37.6602C25.9989 37.7446 26.0836 37.8083 26.1812 37.8425C26.2788 37.8767 26.3847 37.8798 26.4842 37.8513C26.5837 37.8229 26.6719 37.7642 26.7366 37.6835L27.1276 37.1935C29.4572 34.2772 31.3124 31.0118 32.6246 27.5175L32.8146 27.0105C32.8431 26.9349 32.8528 26.8534 32.8428 26.7732C32.8329 26.693 32.8037 26.6164 32.7577 26.5499C32.7117 26.4835 32.6503 26.4292 32.5787 26.3916C32.5071 26.3541 32.4274 26.3345 32.3466 26.3345H29.6336L31.9586 19.9825C31.9847 19.9115 31.9943 19.8354 31.9867 19.7601C31.9791 19.6847 31.9544 19.6121 31.9147 19.5477C31.8749 19.4833 31.821 19.4287 31.7571 19.3881C31.6931 19.3476 31.6208 19.3221 31.5456 19.3135L29.9506 19.1315Z" fill="white"/>
</svg>
