<svg width="56" height="56" viewBox="0 0 56 56" fill="none" xmlns="http://www.w3.org/2000/svg">
<rect width="56" height="56" rx="12" fill="white"/>
<path d="M28 5.25C23.5005 5.25 19.102 6.58426 15.3608 9.08407C11.6196 11.5839 8.70364 15.1369 6.98175 19.294C5.25986 23.451 4.80933 28.0252 5.68715 32.4383C6.56496 36.8514 8.73169 40.905 11.9133 44.0867C15.095 47.2683 19.1486 49.435 23.5617 50.3129C27.9748 51.1907 32.549 50.7401 36.7061 49.0183C40.8631 47.2964 44.4161 44.3804 46.9159 40.6392C49.4157 36.898 50.75 32.4995 50.75 28C50.7436 21.9683 48.3447 16.1854 44.0797 11.9204C39.8146 7.65528 34.0317 5.25637 28 5.25ZM28 47.25C24.1927 47.25 20.4709 46.121 17.3053 44.0058C14.1396 41.8906 11.6723 38.8841 10.2153 35.3667C8.75834 31.8492 8.37713 27.9786 9.11989 24.2445C9.86266 20.5104 11.696 17.0804 14.3882 14.3882C17.0804 11.696 20.5104 9.86265 24.2445 9.11988C27.9787 8.37712 31.8492 8.75833 35.3667 10.2153C38.8841 11.6723 41.8906 14.1396 44.0058 17.3053C46.121 20.4709 47.25 24.1927 47.25 28C47.2442 33.1036 45.2142 37.9966 41.6054 41.6054C37.9966 45.2142 33.1036 47.2442 28 47.25ZM17.5 23.625C17.5 23.1058 17.654 22.5983 17.9424 22.1666C18.2308 21.7349 18.6408 21.3985 19.1205 21.1998C19.6001 21.0011 20.1279 20.9492 20.6371 21.0504C21.1463 21.1517 21.6141 21.4017 21.9812 21.7688C22.3483 22.136 22.5983 22.6037 22.6996 23.1129C22.8009 23.6221 22.7489 24.1499 22.5502 24.6295C22.3515 25.1092 22.0151 25.5192 21.5834 25.8076C21.1517 26.096 20.6442 26.25 20.125 26.25C19.4288 26.25 18.7611 25.9734 18.2689 25.4812C17.7766 24.9889 17.5 24.3212 17.5 23.625ZM38.5 23.625C38.5 24.1442 38.3461 24.6517 38.0576 25.0834C37.7692 25.515 37.3592 25.8515 36.8796 26.0502C36.3999 26.2489 35.8721 26.3008 35.3629 26.1996C34.8537 26.0983 34.386 25.8483 34.0189 25.4812C33.6517 25.114 33.4017 24.6463 33.3004 24.1371C33.1992 23.6279 33.2511 23.1001 33.4498 22.6205C33.6485 22.1408 33.985 21.7308 34.4166 21.4424C34.8483 21.154 35.3558 21 35.875 21C36.5712 21 37.2389 21.2766 37.7312 21.7688C38.2234 22.2611 38.5 22.9288 38.5 23.625ZM38.2659 34.125C36.015 38.0166 32.2722 40.25 28 40.25C23.7278 40.25 19.9872 38.0187 17.7363 34.125C17.6096 33.9258 17.5246 33.7031 17.4863 33.4702C17.448 33.2373 17.4572 32.9991 17.5134 32.7698C17.5695 32.5406 17.6715 32.3251 17.8131 32.1362C17.9547 31.9474 18.133 31.7892 18.3373 31.6711C18.5417 31.553 18.7678 31.4774 19.0021 31.4489C19.2364 31.4205 19.474 31.4397 19.7007 31.5055C19.9274 31.5712 20.1384 31.6822 20.3211 31.8316C20.5038 31.981 20.6544 32.1659 20.7638 32.375C22.3978 35.1991 24.9659 36.75 28 36.75C31.0341 36.75 33.6022 35.1969 35.2341 32.375C35.4661 31.9729 35.8484 31.6795 36.2968 31.5593C36.7452 31.4391 37.223 31.502 37.625 31.7341C38.0271 31.9661 38.3205 32.3484 38.4407 32.7968C38.5609 33.2452 38.498 33.7229 38.2659 34.125Z" fill="black"/>
</svg>
